REM DIRINDEX 1\2\6,1\2\7,1\2\8,1\3\9,1\3\10,1\3\11,1\4\12,1\4\13,1\4\14,1\5\15,1\5\16,1\5\17,1\5\18
REM DIRNAME cjc019,folder01,folder02,folder03,folder04,folder05,folder06,folder07,folder08,folder09,folder10,folder11,folder12,folder13,folder14,folder15,folder16,folder17
TITLE ""
FILE "2Q_t_0985-1002.mp3" MP3
  TRACK 01 AUDIO
    TITLE "13:cjc019_4032"
    INDEX 01 00:00:00
  TRACK 02 AUDIO
    TITLE "0:"
    INDEX 01 00:01:01
  TRACK 03 AUDIO
    TITLE "14:cjc019_4033"
    INDEX 01 00:01:56
  TRACK 04 AUDIO
    TITLE "0:"
    INDEX 01 00:05:05
  TRACK 05 AUDIO
    TITLE "13:cjc019_4034"
    INDEX 01 00:05:59
  TRACK 06 AUDIO
    TITLE "0:"
    INDEX 01 00:07:17
  TRACK 07 AUDIO
    TITLE "14:cjc019_4035"
    INDEX 01 00:08:01
  TRACK 08 AUDIO
    TITLE "0:"
    INDEX 01 00:09:02
  TRACK 09 AUDIO
    TITLE "13:cjc019_4036"
    INDEX 01 00:09:61
  TRACK 10 AUDIO
    TITLE "0:"
    INDEX 01 00:11:07
  TRACK 11 AUDIO
    TITLE "14:cjc019_4037"
    INDEX 01 00:11:64
  TRACK 12 AUDIO
    TITLE "0:"
    INDEX 01 00:14:17
  TRACK 13 AUDIO
    TITLE "13:cjc019_4038"
    INDEX 01 00:14:72
  TRACK 14 AUDIO
    TITLE "0:"
    INDEX 01 00:16:06
  TRACK 15 AUDIO
    TITLE "14:cjc019_4039"
    INDEX 01 00:16:65
  TRACK 16 AUDIO
    TITLE "0:"
    INDEX 01 00:19:20
  TRACK 17 AUDIO
    TITLE "13:cjc019_4040"
    INDEX 01 00:20:02
  TRACK 18 AUDIO
    TITLE "0:"
    INDEX 01 00:21:17
  TRACK 19 AUDIO
    TITLE "14:cjc019_4041"
    INDEX 01 00:22:01
  TRACK 20 AUDIO
    TITLE "0:"
    INDEX 01 00:24:10
  TRACK 21 AUDIO
    TITLE "13:cjc019_4042"
    INDEX 01 00:24:67
  TRACK 22 AUDIO
    TITLE "0:"
    INDEX 01 00:25:74
  TRACK 23 AUDIO
    TITLE "14:cjc019_4043"
    INDEX 01 00:26:56
  TRACK 24 AUDIO
    TITLE "0:"
    INDEX 01 00:27:71
  TRACK 25 AUDIO
    TITLE "13:cjc019_4044"
    INDEX 01 00:28:51
  TRACK 26 AUDIO
    TITLE "0:"
    INDEX 01 00:30:08
  TRACK 27 AUDIO
    TITLE "14:cjc019_4045"
    INDEX 01 00:30:63
  TRACK 28 AUDIO
    TITLE "0:"
    INDEX 01 00:34:28
  TRACK 29 AUDIO
    TITLE "13:cjc019_4046"
    INDEX 01 00:35:12
  TRACK 30 AUDIO
    TITLE "0:"
    INDEX 01 00:36:29
  TRACK 31 AUDIO
    TITLE "14:cjc019_4047"
    INDEX 01 00:37:18
  TRACK 32 AUDIO
    TITLE "0:"
    INDEX 01 00:42:49
  TRACK 33 AUDIO
    TITLE "13:cjc019_4048"
    INDEX 01 00:43:27
  TRACK 34 AUDIO
    TITLE "0:"
    INDEX 01 00:44:50
  TRACK 35 AUDIO
    TITLE "14:cjc019_4049"
    INDEX 01 00:45:35
  TRACK 36 AUDIO
    TITLE "0:"
    INDEX 01 00:46:53
  TRACK 37 AUDIO
    TITLE "13:cjc019_4050"
    INDEX 01 00:47:32
  TRACK 38 AUDIO
    TITLE "0:"
    INDEX 01 00:48:55
  TRACK 39 AUDIO
    TITLE "14:cjc019_4051"
    INDEX 01 00:49:23
  TRACK 40 AUDIO
    TITLE "0:"
    INDEX 01 00:53:74
  TRACK 41 AUDIO
    TITLE "13:cjc019_4052"
    INDEX 01 00:54:48
  TRACK 42 AUDIO
    TITLE "0:"
    INDEX 01 00:55:71
  TRACK 43 AUDIO
    TITLE "14:cjc019_4053"
    INDEX 01 00:56:53
  TRACK 44 AUDIO
    TITLE "0:"
    INDEX 01 00:59:22
  TRACK 45 AUDIO
    TITLE "13:cjc019_4054"
    INDEX 01 01:00:06
  TRACK 46 AUDIO
    TITLE "0:"
    INDEX 01 01:01:23
  TRACK 47 AUDIO
    TITLE "14:cjc019_4055"
    INDEX 01 01:02:06
  TRACK 48 AUDIO
    TITLE "0:"
    INDEX 01 01:04:56
  TRACK 49 AUDIO
    TITLE "13:cjc019_4056"
    INDEX 01 01:05:42
  TRACK 50 AUDIO
    TITLE "0:"
    INDEX 01 01:06:57
  TRACK 51 AUDIO
    TITLE "14:cjc019_4057"
    INDEX 01 01:07:45
  TRACK 52 AUDIO
    TITLE "0:"
    INDEX 01 01:08:44
  TRACK 53 AUDIO
    TITLE "13:cjc019_4058"
    INDEX 01 01:09:16
  TRACK 54 AUDIO
    TITLE "0:"
    INDEX 01 01:10:20
  TRACK 55 AUDIO
    TITLE "14:cjc019_4059"
    INDEX 01 01:10:71
  TRACK 56 AUDIO
    TITLE "0:"
    INDEX 01 01:13:06
  TRACK 57 AUDIO
    TITLE "13:cjc019_4060"
    INDEX 01 01:13:61
  TRACK 58 AUDIO
    TITLE "0:"
    INDEX 01 01:15:03
  TRACK 59 AUDIO
    TITLE "14:cjc019_4061"
    INDEX 01 01:15:58
  TRACK 60 AUDIO
    TITLE "0:"
    INDEX 01 01:19:42
  TRACK 61 AUDIO
    TITLE "13:cjc019_4062"
    INDEX 01 01:20:22
  TRACK 62 AUDIO
    TITLE "0:"
    INDEX 01 01:21:35
  TRACK 63 AUDIO
    TITLE "14:cjc019_4063"
    INDEX 01 01:22:21
  TRACK 64 AUDIO
    TITLE "0:"
    INDEX 01 01:24:43
  TRACK 65 AUDIO
    TITLE "13:cjc019_4064"
    INDEX 01 01:25:25
  TRACK 66 AUDIO
    TITLE "0:"
    INDEX 01 01:26:56
  TRACK 67 AUDIO
    TITLE "14:cjc019_4065"
    INDEX 01 01:27:36
  TRACK 68 AUDIO
    TITLE "0:"
    INDEX 01 01:28:41
  TRACK 69 AUDIO
    TITLE "13:cjc019_4066"
    INDEX 01 01:29:21
  TRACK 70 AUDIO
    TITLE "0:"
    INDEX 01 01:30:44
  TRACK 71 AUDIO
    TITLE "14:cjc019_4067"
    INDEX 01 01:31:26
  TRACK 72 AUDIO
    TITLE "0:"
    INDEX 01 01:33:29
